<svg xmlns="http://www.w3.org/2000/svg" viewBox="0 0 269.71 58.27"><defs><style>.cls-1{fill:#fff;}</style></defs><title>Asset 2</title><g id="Layer_2" data-name="Layer 2"><g id="Layer_1-2" data-name="Layer 1"><rect class="cls-1" y="0.27" width="58" height="10.15"/><rect class="cls-1" x="39.35" y="24.19" width="18" height="10.15"/><rect class="cls-1" x="1.35" y="24.19" width="26" height="10.15"/><rect class="cls-1" y="48.12" width="58" height="10.15"/><rect class="cls-1" x="-23.92" y="24.19" width="58" height="10.15" transform="translate(34.34 24.19) rotate(90)"/><path class="cls-1" d="M140.84,6.77H122.56v7.34h16.78v6H122.56V29h19.12V35.2H115.5V.66h25.34Z"/><path class="cls-1" d="M171.61,1.55A8.45,8.45,0,0,1,174.84,4a10.86,10.86,0,0,1,1.74,2.91,9.59,9.59,0,0,1,.64,3.63A10.46,10.46,0,0,1,176,15.34a6.92,6.92,0,0,1-4.1,3.36,6.43,6.43,0,0,1,3.38,2.73,11.3,11.3,0,0,1,1,5.41v2.32a17.32,17.32,0,0,0,.19,3.21,2.89,2.89,0,0,0,1.33,2v.86h-8c-.22-.76-.37-1.38-.47-1.85a17.19,17.19,0,0,1-.3-3l0-3.22c0-2.2-.41-3.67-1.14-4.4s-2.1-1.1-4.11-1.1h-7.05V35.2h-7.06V.66h16.53A14.83,14.83,0,0,1,171.61,1.55ZM156.69,6.66v9.28h7.77a8.35,8.35,0,0,0,3.47-.56c1.36-.66,2-2,2-3.9,0-2.09-.66-3.5-2-4.21a7.15,7.15,0,0,0-3.34-.61Z"/><path class="cls-1" d="M192.88,35.2h-7.17V.66h7.17Z"/><path class="cls-1" d="M205.09,4.27A14.2,14.2,0,0,1,215.71,0q8.63,0,12.61,5.72a12.48,12.48,0,0,1,2.37,6.44h-7.22a9.93,9.93,0,0,0-1.77-3.75A7.11,7.11,0,0,0,216,6.16a7,7,0,0,0-6.08,3.18c-1.49,2.12-2.23,5.11-2.23,9s.79,6.78,2.35,8.71a7.39,7.39,0,0,0,6,2.89,6.79,6.79,0,0,0,5.67-2.48,11.07,11.07,0,0,0,1.79-4h7.17a15.55,15.55,0,0,1-4.74,9.18,13.82,13.82,0,0,1-9.78,3.54q-7.36,0-11.59-4.78t-4.22-13.17Q200.29,9.16,205.09,4.27Z"/><path class="cls-1" d="M238.73.66h7.1V14.89L259.18.66h9.33l-14.18,14.2,14.9,20.34H260L249.31,20.12l-3.48,3.53V35.2h-7.1Z"/><path class="cls-1" d="M115.54,57.27v-18h1.7V47h10.65V39.27h1.7v18h-1.7V48.44H117.24v8.83Z"/><path class="cls-1" d="M134.31,57.27v-18h12v1.45H136v6.5h9.28v1.45H136v7.15h10.53v1.45Z"/><path class="cls-1" d="M152,49.09v8.18l-1.7,0v-18h7.05a7.84,7.84,0,0,1,4.55,1.11A4.11,4.11,0,0,1,163.44,44a4.7,4.7,0,0,1-.69,2.7,5.22,5.22,0,0,1-2.24,1.7,2.74,2.74,0,0,1,1.25.8,3.56,3.56,0,0,1,.68,1.2,6,6,0,0,1,.28,1.43c.05.5.08,1,.09,1.45,0,.68.05,1.25.09,1.7a9.81,9.81,0,0,0,.15,1.1,2.86,2.86,0,0,0,.21.66,1,1,0,0,0,.3.36v.15l-1.87,0A3.12,3.12,0,0,1,161.3,56c-.08-.54-.13-1.1-.18-1.68s-.07-1.15-.1-1.7a10.28,10.28,0,0,0-.13-1.35,2.88,2.88,0,0,0-.49-1.16,2.32,2.32,0,0,0-.81-.66,3.51,3.51,0,0,0-1.07-.3,9.46,9.46,0,0,0-1.21-.08Zm5.3-1.45a7.53,7.53,0,0,0,1.76-.2,3.93,3.93,0,0,0,1.42-.64,3.2,3.2,0,0,0,.95-1.11,3.52,3.52,0,0,0,.35-1.62,3.25,3.25,0,0,0-.37-1.65,2.67,2.67,0,0,0-1-1,4.19,4.19,0,0,0-1.4-.52,8.78,8.78,0,0,0-1.64-.15H152v6.92Z"/><path class="cls-1" d="M169.36,41.57h-.05v15.7h-1.7v-18h1.93L179.94,55H180V39.27h1.7v18h-2Z"/><path class="cls-1" d="M184.76,57.27l7.08-18h1.92l6.9,18h-1.75l-2.07-5.65h-8.2l-2.13,5.65Zm4.45-7.1h7l-3.52-9.45Z"/><path class="cls-1" d="M205.49,41.57h-.05v15.7h-1.7v-18h1.92L216.06,55h.05V39.27h1.7v18h-2Z"/><path class="cls-1" d="M222.54,57.27v-18h6.15q.75,0,1.47,0a11.4,11.4,0,0,1,1.43.18,7.33,7.33,0,0,1,1.36.41,6.43,6.43,0,0,1,1.29.73,5.4,5.4,0,0,1,1.47,1.58,9.32,9.32,0,0,1,.91,2,11,11,0,0,1,.48,2.1,15.69,15.69,0,0,1,.14,2,14.29,14.29,0,0,1-.12,1.83,11.15,11.15,0,0,1-.36,1.81,10,10,0,0,1-.66,1.7,6.65,6.65,0,0,1-1,1.49,5.67,5.67,0,0,1-1.36,1.12,6.82,6.82,0,0,1-1.55.66,9.36,9.36,0,0,1-1.69.33,17.19,17.19,0,0,1-1.77.09Zm1.7-1.45h4.07a16.22,16.22,0,0,0,2.16-.14,6.16,6.16,0,0,0,2.07-.69A4.08,4.08,0,0,0,234,53.77a6.73,6.73,0,0,0,.91-1.69,8.76,8.76,0,0,0,.48-1.91,14.5,14.5,0,0,0,.14-1.93,17,17,0,0,0-.13-2,8.17,8.17,0,0,0-.47-1.92,6.62,6.62,0,0,0-.95-1.68,4.72,4.72,0,0,0-1.55-1.26,5.36,5.36,0,0,0-1.9-.55,20.69,20.69,0,0,0-2.23-.12h-4.07Z"/><path class="cls-1" d="M241.29,57.27v-18h12v1.45H243v6.5h9.27v1.45H243v7.15h10.52v1.45Z"/><path class="cls-1" d="M256,57.27V55.84l11.52-15.12H257V39.27h12.66v1.42L258.11,55.82h11.6v1.45Z"/></g></g></svg>