<?xml version="1.0" encoding="utf-8"?>
<!-- Generator: Adobe Illustrator 19.2.1, SVG Export Plug-In . SVG Version: 6.00 Build 0)  -->
<svg version="1.1" id="layer" xmlns="http://www.w3.org/2000/svg" xmlns:xlink="http://www.w3.org/1999/xlink" x="0px" y="0px"
	 viewBox="0 0 652 652" style="enable-background:new 0 0 652 652;" xml:space="preserve">
<style type="text/css">
	.st0{clip-path:url(#SVGID_2_);}
	.st1{clip-path:url(#SVGID_6_);}
	.st2{clip-path:url(#SVGID_10_);}
	.st3{clip-path:url(#SVGID_14_);}
	.st4{clip-path:url(#SVGID_18_);}
</style>
<g>
	<g>
		<defs>
			<path id="SVGID_1_" d="M400.2,300.8c3.1,6.1,4.7,13.1,4.7,20.5v0.4c0,23.6-16.8,42.8-41.1,42.8c-11.3,0-21-4.3-28.3-11.2
				l-23.5,19.1c12.8,12.3,30.7,20,51.4,20c42.3,0,73-32.1,73-71.1v-0.4c0-14.8-4.3-28.4-12-39.8 M290.8,321.2v0.4
				c0,14.8,4.4,28.5,12.1,39.8l24.2-19.7c-3.1-6.1-4.8-13.1-4.8-20.5v-0.4c0-23.5,16.8-42.8,41.1-42.8c11.3,0,21.1,4.3,28.3,11.2
				l23.5-19.1c-12.8-12.4-30.7-20-51.5-20C321.6,250.2,290.8,282.2,290.8,321.2"/>
		</defs>
		<use xlink:href="#SVGID_1_"  style="overflow:visible;"/>
		<clipPath id="SVGID_2_">
			<use xlink:href="#SVGID_1_"  style="overflow:visible;"/>
		</clipPath>
		<g class="st0">
			<defs>
				<rect id="SVGID_3_" x="289.5" y="249.1" width="149.8" height="145.2"/>
			</defs>
			<clipPath id="SVGID_4_">
				<use xlink:href="#SVGID_3_"  style="overflow:visible;"/>
			</clipPath>
		</g>
	</g>
</g>
<g>
	<g>
		<defs>
			<path id="SVGID_5_" d="M574.4,328.3c-3.3,19.5-19,34.3-40.4,34.3c-21.3,0-37.2-14.9-40.7-34.3h-31.8
				c3.8,34.7,32.8,61.7,72.2,61.7h86.3v-25.2h-13.5c-5,0-11.2,0.3-17.8,0.7c9.3-10.3,15.6-23.1,17.4-37.2 M461.2,314.1h31.6
				c2.5-20.6,18.5-36.5,40.8-36.5c22.1,0,38.4,16.1,41.1,36.5h31.7c-2.8-35.8-32.2-63.9-72.4-63.9
				C493.9,250.2,464.2,278.5,461.2,314.1"/>
		</defs>
		<use xlink:href="#SVGID_5_"  style="overflow:visible;"/>
		<clipPath id="SVGID_6_">
			<use xlink:href="#SVGID_5_"  style="overflow:visible;"/>
		</clipPath>
		<g class="st1">
			<defs>
				<rect id="SVGID_7_" x="459.3" y="249.1" width="168.7" height="142.1"/>
			</defs>
			<use xlink:href="#SVGID_7_"  style="overflow:visible;"/>
			<clipPath id="SVGID_8_">
				<use xlink:href="#SVGID_7_"  style="overflow:visible;"/>
			</clipPath>
		</g>
	</g>
</g>
<g>
	<g>
		<defs>
			<polyline id="SVGID_9_" points="145,252.5 176.3,252.5 205.7,329.3 190,370.1 			"/>
		</defs>
		<use xlink:href="#SVGID_9_"  style="overflow:visible;"/>
		<clipPath id="SVGID_10_">
			<use xlink:href="#SVGID_9_"  style="overflow:visible;"/>
		</clipPath>
		<g class="st2">
			<defs>
				<rect id="SVGID_11_" x="143" y="250.6" width="84.1" height="120.3"/>
			</defs>
			<use xlink:href="#SVGID_11_"  style="overflow:visible;"/>
			<clipPath id="SVGID_12_">
				<use xlink:href="#SVGID_11_"  style="overflow:visible;"/>
			</clipPath>
		</g>
	</g>
</g>
<g>
	<g>
		<defs>
			<polyline id="SVGID_13_" points="197.7,389.9 250.2,252.5 281.5,252.5 228.9,389.9 			"/>
		</defs>
		<use xlink:href="#SVGID_13_"  style="overflow:visible;"/>
		<clipPath id="SVGID_14_">
			<use xlink:href="#SVGID_13_"  style="overflow:visible;"/>
		</clipPath>
		<g class="st3">
			<defs>
				<rect id="SVGID_15_" x="196" y="250.6" width="93.6" height="140.6"/>
			</defs>
			<use xlink:href="#SVGID_15_"  style="overflow:visible;"/>
			<clipPath id="SVGID_16_">
				<use xlink:href="#SVGID_15_"  style="overflow:visible;"/>
			</clipPath>
		</g>
	</g>
</g>
<g>
	<g>
		<defs>
			<path id="SVGID_17_" d="M64,252.5h59.2v26.9H64V252.5z M64,307.3h50.4v27H64V307.3z M19.9,252.5h29.9v137.3H19.9V252.5z M64,363
				h60.2v26.8H64V363z"/>
		</defs>
		<use xlink:href="#SVGID_17_"  style="overflow:visible;"/>
		<clipPath id="SVGID_18_">
			<use xlink:href="#SVGID_17_"  style="overflow:visible;"/>
		</clipPath>
		<g class="st4">
			<defs>
				<rect id="SVGID_19_" x="18.4" y="250.6" width="112" height="140.6"/>
			</defs>
			<use xlink:href="#SVGID_19_"  style="overflow:visible;"/>
			<clipPath id="SVGID_20_">
				<use xlink:href="#SVGID_19_"  style="overflow:visible;"/>
			</clipPath>
		</g>
	</g>
</g>
</svg>
